<svg width="576" height="512" viewBox="0 0 576 512" fill="none" xmlns="http://www.w3.org/2000/svg">
<path d="M301.2 34.85C289.7 29.662 276.18 31.728 266.76 40.103L131.8 160H48C21.49 160 0 181.49 0 207.1V302.2C0 328.71 21.49 349.3 48 349.3H131.84L266.74 469.2C272.724 474.512 280.32 477.294 288 477.294C292.438 477.294 296.972 476.357 301.17 474.45C312.67 469.294 319.99 457.89 319.99 445.29V64C319.1 51.41 312.7 40 301.2 34.85ZM513.9 255.1L560.93 208.07C570.305 198.695 570.305 183.51 560.93 174.13C551.555 164.75 536.37 164.755 526.99 174.13L480 222.1L432.1 175C422.725 165.625 407.54 165.625 398.16 175C388.78 184.375 388.785 199.56 398.16 208.94L445.19 255.97L398.16 303C388.785 312.375 388.785 327.56 398.16 336.94C407.533 346.313 422.72 346.321 432.1 336.94L480 289.9L527.03 336.93C536.403 346.303 551.59 346.311 560.97 336.93C570.345 327.555 570.345 312.37 560.97 302.99L513.9 255.1Z" fill="white"/>
</svg>
